# xmcd
#
# Track frame offsets:
#	150
#	15983
#	36965
#	55640
#	71962
#	83710
#	95966
#	109748
#	121755
#	139408
#	158223
#	181358
#	203980
#	232667
#	249344
#	264922
#	287414
#	298411
#	314198
#	326674
#
# Disc length: 4641 seconds
#
# Revision: 5
# Processed by: cddbd v1.5.2PL0 Copyright (c) Steve Scherf et al.
# Submitted via: EasyCDDAExtractor 15.2.5.1
#
DISCID=26121f14
DTITLE=Various Artist - Sugar Hill Records A Retrospective - Disc Three (1993
DTITLE=1998)
DYEAR=2006
DGENRE=Country
TTITLE0=The Lonesome River Band - When You Go Walking
TTITLE1=Sam Bush - All Night Radio
TTITLE2=Del Mccoury - Can't You Hear Me Calling
TTITLE3=Robin and Linda Williams - Rolling And Rambling - The Death Of Hank Will
TTITLE3=iams
TTITLE4=The Seldom Scene - Dry Run Creek
TTITLE5=Chris Thile - Shadow Ridge
TTITLE6=The Brother Boys - Lets' Shake Loose
TTITLE7=Tommy Thompson With The Red Clay Ramblers - Way Long Timey Ago
TTITLE8=James McMurtry - For All I Know
TTITLE9=Psychgrass - Three King Creek
TTITLE10=Guy Clark - Out In The Parking Lot
TTITLE11=Darrell Scott - You'll Never Leave Harlan Alive
TTITLE12=Terry Allen - Gone To Texas
TTITLE13=Jerry Douglas, Russ Barenberg and Edgar Meyer - Big Bug Shuffle
TTITLE14=Front Range - The Hills That I Call Home
TTITLE15=Byron Berline - Sally Goodin (Featuring Bill Monroe and Earl Scruggs)
TTITLE16=Laurel Canyon Ramblers - Bad Case Of The Blues
TTITLE17=John Cowan - Dark End Of The Street
TTITLE18=The Seldom Scene - Let Me Be Your Friend
TTITLE19=Robert Earl Keen - Merry Christmas From The Family
EXTD=
EXTT0=
EXTT1=
EXTT2=
EXTT3=
EXTT4=
EXTT5=
EXTT6=
EXTT7=
EXTT8=
EXTT9=
EXTT10=
EXTT11=
EXTT12=
EXTT13=
EXTT14=
EXTT15=
EXTT16=
EXTT17=
EXTT18=
EXTT19=
PLAYORDER=
